<svg width="120" height="92" viewBox="0 0 120 92" fill="none" xmlns="http://www.w3.org/2000/svg">
<path d="M76.922 0.0670776H4.17916C2.03478 0.0670776 0.350586 1.75127 0.350586 3.89565V49.8385C0.350586 51.9438 2.03478 53.6671 4.17916 53.6671H76.922C79.0277 53.6671 80.7506 51.9438 80.7506 49.8385V3.89565C80.7506 1.75127 79.0281 0.0670776 76.922 0.0670776Z" fill="white"/>
<path d="M0.3125 72.8099C0.3125 74.9153 2.03536 76.6385 4.14107 76.6385H8.27593C9.88393 68.6364 16.4691 62.3579 24.6622 61.3242H4.17936C2.80069 61.3242 1.53803 61.0941 0.3125 60.6347V72.8099Z" fill="white"/>
<path d="M111.112 76.6385H115.859C117.965 76.6385 119.688 74.9153 119.688 72.81V39.2717C119.688 33.2604 105.024 19.21 96.9845 19.21H88.4085V49.8385C88.4085 56.1553 83.2395 61.3242 76.9228 61.3242H29.6392C37.8327 62.358 44.4178 68.6364 46.0254 76.6385H73.3615C75.123 67.8328 82.895 61.1328 92.2367 61.1328C101.54 61.1324 109.35 67.8324 111.112 76.6385ZM94.6866 28.6279C114.289 27.6707 113.486 47.9239 113.486 47.9239H94.6866V28.6279Z" fill="white"/>
<path d="M92.221 91.9313C98.6067 91.9313 103.783 86.7547 103.783 80.369C103.783 73.9834 98.6067 68.8068 92.221 68.8068C85.8353 68.8068 80.6587 73.9834 80.6587 80.369C80.6587 86.7547 85.8353 91.9313 92.221 91.9313Z" fill="white"/>
<path d="M27.1355 91.9313C33.5212 91.9313 38.6978 86.7547 38.6978 80.369C38.6978 73.9834 33.5212 68.8068 27.1355 68.8068C20.7499 68.8068 15.5732 73.9834 15.5732 80.369C15.5732 86.7547 20.7499 91.9313 27.1355 91.9313Z" fill="white"/>
</svg>
